<?xml version="1.0" standalone="no"?><!DOCTYPE svg PUBLIC "-//W3C//DTD SVG 1.1//EN" "http://www.w3.org/Graphics/SVG/1.1/DTD/svg11.dtd"><svg t="1709259477262" class="icon" viewBox="0 0 1024 1024" version="1.1" xmlns="http://www.w3.org/2000/svg" p-id="4126" xmlns:xlink="http://www.w3.org/1999/xlink" width="200" height="200"><path d="M160 818.752l233.386667-233.386667a32 32 0 0 1 45.226666 45.269334L205.269333 864H426.666667a32 32 0 0 1 0 64H179.2a83.2 83.2 0 0 1-83.2-83.2V597.333333a32 32 0 0 1 64 0v221.418667z m704-613.504l-233.386667 233.386667a32 32 0 0 1-45.226666-45.269334L818.730667 160H597.333333a32 32 0 0 1 0-64h247.466667a83.2 83.2 0 0 1 83.2 83.2V426.666667a32 32 0 0 1-64 0V205.248z" fill="currentColor" p-id="4127"></path></svg>