<?xml version="1.0" standalone="no"?><!DOCTYPE svg PUBLIC "-//W3C//DTD SVG 1.1//EN" "http://www.w3.org/Graphics/SVG/1.1/DTD/svg11.dtd"><svg t="1709259480486" class="icon" viewBox="0 0 1024 1024" version="1.1" xmlns="http://www.w3.org/2000/svg" p-id="4265" xmlns:xlink="http://www.w3.org/1999/xlink" width="200" height="200"><path d="M394.666667 674.581333L171.946667 897.301333a32 32 0 0 1-45.226667-45.269333L349.397333 629.333333H128a32 32 0 0 1 0-64h247.466667a83.2 83.2 0 0 1 83.2 83.2V896a32 32 0 0 1-64 0V674.581333z m234.666666-325.162666l233.386667-233.386667a32 32 0 0 1 45.226667 45.269333L674.602667 394.666667H896a32 32 0 0 1 0 64H648.533333a83.2 83.2 0 0 1-83.2-83.2V128a32 32 0 0 1 64 0v221.418667z" fill="currentColor" p-id="4266"></path></svg>