<?xml version="1.0" standalone="no"?><!DOCTYPE svg PUBLIC "-//W3C//DTD SVG 1.1//EN" "http://www.w3.org/Graphics/SVG/1.1/DTD/svg11.dtd"><svg t="1714139876806" class="icon" viewBox="0 0 1024 1024" version="1.1" xmlns="http://www.w3.org/2000/svg" p-id="3130" xmlns:xlink="http://www.w3.org/1999/xlink" width="200" height="200"><path d="M778.047682 603.616073c6.240882 6.271845 14.463432 9.440452 22.687703 9.440452 8.160624 0 16.319527-3.103239 22.560409-9.311437 12.54369-12.447359 12.607338-32.704421 0.127295-45.248112L540.032361 273.408413c-5.311974-10.20766-15.712297-17.408413-28.032361-17.408413-14.016181 0-25.567316 9.151458-29.919419 21.695149L231.199892 528.128585c-12.512727 12.480043-12.54369 32.735385-0.032684 45.248112 6.240882 6.271845 14.432469 9.407768 22.65674 9.407768 8.160624 0 16.352211-3.135923 22.624056-9.34412l203.552856-203.263862 0 557.824378c0 17.695686 14.336138 31.99914 32.00086 31.99914s32.00086-14.303454 32.00086-31.99914L544.00258 368.160409 778.047682 603.616073z" fill="currentColor" p-id="3131"></path><path d="M896 160.00086c0-17.664722-14.303454-32.00086-31.99914-32.00086L160.00086 128c-17.664722 0-32.00086 14.336138-32.00086 32.00086s14.336138 32.00086 32.00086 32.00086l704 0C881.696546 192 896 177.663862 896 160.00086z" fill="currentColor" p-id="3132"></path><path d="M817.376589 672.320817c-79.39234 0-143.99957 64.60723-143.99957 143.99957s64.60723 143.99957 143.99957 143.99957 143.99957-64.60723 143.99957-143.99957S896.767209 672.320817 817.376589 672.320817zM897.376159 816.320387c0 11.167531-2.33603 21.79148-6.464507 31.455557l-104.99234-104.99234c9.696761-4.128477 20.32071-6.464507 31.455557-6.464507C861.504851 736.320817 897.376159 772.192125 897.376159 816.320387zM737.375299 816.320387c0-9.407768 1.952426-18.271953 4.895686-26.656202l101.760086 101.760086c-8.384249 2.975944-17.248434 4.895686-26.656202 4.895686C773.248327 896.319957 737.375299 860.448649 737.375299 816.320387z" fill="currentColor" p-id="3133"></path></svg>