<svg width="24" height="24" viewBox="0 0 24 24" fill="none" xmlns="http://www.w3.org/2000/svg">
<g clip-path="url(#clip0_325_7457)">
<path fill-rule="evenodd" clip-rule="evenodd" d="M19.7102 12C19.7102 12.3534 19.6888 12.6854 19.646 13.0066L21.7985 14.6986C22.0019 14.8485 22.0555 15.1163 21.927 15.3519L19.8709 18.9072C19.7424 19.1428 19.4746 19.2284 19.239 19.1428L16.6796 18.1147C16.1549 18.5217 15.5766 18.8644 14.9448 19.1214L14.5593 21.8414C14.5272 22.0984 14.313 22.2805 14.056 22.2805H9.9438C9.68678 22.2805 9.48332 22.0984 9.42977 21.8414L9.04426 19.1214C8.41244 18.8644 7.84487 18.5217 7.30943 18.1147L4.75002 19.1428C4.51443 19.2177 4.24671 19.1428 4.1182 18.9072L2.06211 15.3519C1.94431 15.1377 1.99786 14.8485 2.19062 14.6986L4.36451 13.0066C4.31096 12.6854 4.28954 12.332 4.28954 12C4.28954 11.668 4.33238 11.3146 4.38592 10.9934L2.21203 9.30138C1.99786 9.15146 1.95502 8.87303 2.08353 8.64814L4.12891 5.09282C4.25742 4.85723 4.52514 4.77155 4.76073 4.85723L7.32014 5.88527C7.84487 5.48904 8.42315 5.13565 9.05497 4.87864L9.44048 2.1586C9.48332 1.90159 9.68678 1.71954 9.9438 1.71954H14.056C14.313 1.71954 14.5272 1.90159 14.57 2.1586L14.9555 4.87864C15.5873 5.13565 16.1549 5.47834 16.6903 5.88527L19.2498 4.85723C19.4853 4.78226 19.7531 4.85723 19.8816 5.09282L21.9377 8.64814C22.0555 8.86232 22.0019 9.15146 21.8092 9.30138L19.6353 10.9934C19.6888 11.3146 19.7102 11.6573 19.7102 12ZM6.64537 12C6.64537 14.9449 9.05485 17.3544 11.9998 17.3544C14.9447 17.3544 17.3542 14.9449 17.3542 12C17.3542 9.05508 14.9447 6.64559 11.9998 6.64559C9.05485 6.64559 6.64537 9.05508 6.64537 12Z" fill="#B1A5FF"/>
<path d="M12 15C10.35 15 9 13.65 9 12C9 10.35 10.35 9 12 9C13.65 9 15 10.35 15 12C15 13.65 13.65 15 12 15Z" fill="#6952FF"/>
</g>
<defs>
<clipPath id="clip0_325_7457">
<rect width="24" height="24" fill="white"/>
</clipPath>
</defs>
</svg>
