<svg width="24" height="24" viewBox="0 0 24 24" fill="none" xmlns="http://www.w3.org/2000/svg">
<path d="M19.1432 19.6664H4.85685C4.0699 19.6664 3.42871 18.8988 3.42871 17.9569C3.42871 17.0149 4.06877 16.2469 4.85685 16.2469H19.1432C19.931 16.2469 20.5721 17.0149 20.5721 17.9569C20.5721 18.8988 19.931 19.6664 19.1422 19.6664M10.2201 8.33348C10.2201 7.09579 11.1796 6.09255 12.3631 6.09255C13.5467 6.09255 14.506 7.09579 14.5062 8.33348C14.8851 8.33348 15.2485 8.49088 15.5164 8.77106C15.7843 9.05124 15.9348 9.43124 15.9348 9.82747C15.9348 10.2237 15.7843 10.6037 15.5164 10.8839C15.2485 11.1641 14.8851 11.3215 14.5062 11.3215H10.2189C9.85143 11.3037 9.50458 11.1386 9.25046 10.8604C8.99633 10.5822 8.85446 10.2123 8.85431 9.82757C8.85441 9.4428 8.99626 9.07286 9.25039 8.79461C9.50452 8.51637 9.8514 8.35122 10.2189 8.33348M21.8473 17.5081L19.4152 4.46325C19.2834 3.65354 18.5581 3.0344 17.6681 3H6.33489C5.42886 3.03459 4.69088 3.67331 4.57783 4.50199L2.15368 17.5081C2.06181 17.7699 2 18.0437 2 18.3337C2 19.8054 3.27899 21 4.85685 21H19.1432C20.7201 21 22 19.8054 22 18.3337C22.0002 18.0421 21.9382 17.7699 21.8473 17.5081Z" fill="#D4D4D4"/>
<path d="M14.7273 18.0158C14.7273 17.6024 15.0488 17.2674 15.4455 17.2674H18.5545C18.9512 17.2674 19.2727 17.6024 19.2727 18.0158C19.2727 18.4291 18.9512 18.7642 18.5545 18.7642H15.4455C15.0488 18.7642 14.7273 18.4291 14.7273 18.0158Z" fill="#ABABAB"/>
</svg>
