<?xml version="1.0" standalone="no"?><!DOCTYPE svg PUBLIC "-//W3C//DTD SVG 1.1//EN" "http://www.w3.org/Graphics/SVG/1.1/DTD/svg11.dtd"><svg t="1725627950083" class="icon" viewBox="0 0 1024 1024" version="1.1" xmlns="http://www.w3.org/2000/svg" p-id="4246" xmlns:xlink="http://www.w3.org/1999/xlink" width="200" height="200"><path d="M906.752 219.648h-53.76v-53.76c0-14.336-8.704-23.04-23.04-23.04s-23.04 8.704-23.04 23.04v53.76H752.64c-14.336 0-23.04 8.704-23.04 23.04s8.704 23.04 23.04 23.04h53.76v53.76c0 14.336 8.704 23.04 23.04 23.04s23.04-8.704 23.04-23.04v-53.76H906.24c14.336 0 23.04-8.704 23.04-23.04s-8.192-23.04-22.528-23.04zM206.848 448c0 40.448 33.792 74.24 74.24 74.24s74.24-33.792 74.24-74.24-33.792-74.24-74.24-74.24-74.24 33.792-74.24 74.24z m46.592 0c0-16.384 11.776-28.16 28.16-28.16s28.16 11.776 28.16 28.16-11.776 28.16-28.16 28.16-28.16-11.776-28.16-28.16z" p-id="4247" fill="currentColor"></path><path d="M821.76 386.048c-20.48-14.848-66.048-35.84-137.728-12.288-83.456 27.648-103.936 103.424-117.76 153.6-9.216 32.256-18.944 62.464-36.352 71.68-21.504 5.12-52.224-3.584-91.136-25.088-99.84-47.616-217.6 68.096-250.88 104.448l-1.536 1.536c-8.192 8.192-8.192 23.552 0 31.232 7.68 7.68 22.016 8.192 30.208 1.024 2.56-1.536 5.632-4.608 11.776-10.752 30.208-29.696 121.344-119.808 193.536-83.456 50.688 25.088 94.72 32.768 124.416 20.48 40.96-17.408 56.32-58.88 66.048-97.28 16.896-62.464 32.256-104.448 87.552-122.88 58.88-20.992 92.16-3.072 107.52 11.264v324.608c0 41.472-37.888 79.36-79.36 79.36h-507.392c-41.472 0-79.36-37.888-79.36-79.36v-410.112c0-41.472 37.888-79.36 79.36-79.36H665.6c14.336 0 23.04-8.704 23.04-23.04s-8.704-23.04-23.04-23.04h-445.952c-70.656 0-125.44 55.296-125.44 125.44v410.112c0 70.656 55.296 125.44 125.44 125.44H727.04c70.656 0 125.44-55.296 125.44-125.44V425.472l-5.632-11.264c-2.048-7.168-12.8-18.944-25.088-28.16z" p-id="4248" fill="currentColor"></path></svg>