<svg width="1024" height="1024" xmlns="http://www.w3.org/2000/svg" p-id="39937" version="1.1" class="icon" t="1711938764418">
 <g id="Layer_1">
  <title>Layer 1</title>
  <g>
   <path fill="currentColor" p-id="15542" d="m212.54321,72.32984a78.66641,78.66641 0 0 1 68.37421,39.10375a78.66641,78.66641 0 0 1 0.52444,78.76474l-0.06555,0.09833l46.87206,80.1414a408.54087,408.54087 0 0 1 183.75162,-43.39763c69.39033,0 134.749,17.24105 192.07714,47.65873l81.28862,-139.10843c10.81663,-18.68327 35.39988,-24.58325 54.08315,-13.76662c17.43772,10.09553 23.73103,32.18767 15.73328,50.28094l-1.96666,3.80221l-83.18972,142.41897a410.63864,410.63864 0 0 1 153.00616,319.74617l0,155.36615c0,87.51638 -69.81644,158.31614 -157.33281,158.31614l-507.39832,0c-86.53305,0 -157.33281,-70.79977 -157.33281,-157.33281l0,-156.34948c0,-132.19234 62.83479,-250.29028 160.41391,-325.61336l-48.18317,-82.46862a78.66641,78.66641 0 0 1 -68.11199,-39.10376a78.66641,78.66641 0 0 1 67.45644,-118.55682zm299.45678,233.377c-183.88272,0 -332.36557,149.46617 -332.36557,332.36557l0,155.36615c0,43.26652 35.39988,78.66641 78.66641,78.66641l508.38165,0c43.26652,0 78.66641,-35.39988 78.66641,-78.66641l0,-155.36615c-0.98333,-182.89939 -149.46617,-332.36557 -333.3489,-332.36557zm132.74956,198.63268c21.63326,0 39.3332,17.69994 39.3332,39.3332l0,39.3332c0,21.63326 -17.69994,39.3332 -39.3332,39.3332c-21.63326,0 -39.3332,-17.69994 -39.3332,-39.3332l0,-39.3332c0,-21.63326 17.69994,-39.3332 39.3332,-39.3332zm-265.49912,0c21.63326,0 39.3332,17.69994 39.3332,39.3332l0,39.3332c0,21.63326 -17.69994,39.3332 -39.3332,39.3332c-21.63326,0 -39.3332,-17.69994 -39.3332,-39.3332l0,-39.3332c0,-21.63326 17.69994,-39.3332 39.3332,-39.3332z"/>
   <path fill="currentColor" p-id="15543" d="m781.76021,218.84602a78.66641,78.66641 0 1 0 79.4203,-135.83067a78.66641,78.66641 0 0 0 -79.4203,135.83067z"/>
  </g>
 </g>

</svg>