<svg width="1024" height="1024" xmlns="http://www.w3.org/2000/svg" p-id="39937" version="1.1" class="icon" t="1711938764418">

 <g>
  <title>Layer 1</title>
  <path id="svg_2" p-id="39939" fill="currentColor" d="m518.68,1016.32a26.88,26.88 0 0 1 -15.36,-4.48l-407.68,-235.52a30.08,30.08 0 0 1 -16,-26.88l0,-471.04a30.08,30.08 0 0 1 16,-26.88l407.68,-235.52a30.72,30.72 0 0 1 31.36,0l407.68,235.52a30.72,30.72 0 0 1 15.36,26.88l0,471.04a30.72,30.72 0 0 1 -15.36,26.88l-407.68,235.52a28.8,28.8 0 0 1 -16,4.48zm-375.68,-285.44l375.68,217.6l376.32,-217.6l0,-433.92l-376.32,-216.96l-375.68,216.96l0,433.92z"/>
  <path id="svg_4" p-id="39941" fill="currentColor" d="m519.68,540.8a28.16,28.16 0 0 1 -15.36,-4.48l-407.68,-230.4a31.36,31.36 0 0 1 -12.16,-42.88a32.64,32.64 0 0 1 43.52,-12.16l407.04,231.04a31.36,31.36 0 0 1 -15.36,58.88z"/>
  <path id="svg_6" p-id="39943" fill="currentColor" d="m512,545.28a31.36,31.36 0 0 1 -15.36,-58.88l404.48,-230.4a31.36,31.36 0 0 1 42.88,12.16a32,32 0 0 1 -12.16,42.88l-407.68,230.4a32,32 0 0 1 -12.16,3.84z"/>
  <path id="svg_7" p-id="39944" fill="currentColor" d="m519.68,1000.96a31.36,31.36 0 0 1 -31.36,-31.36l0,-468.48a31.36,31.36 0 1 1 64,0l0,468.48a31.36,31.36 0 0 1 -32.64,31.36z"/>
 </g>
</svg>