<?xml version="1.0" standalone="no"?><!DOCTYPE svg PUBLIC "-//W3C//DTD SVG 1.1//EN" "http://www.w3.org/Graphics/SVG/1.1/DTD/svg11.dtd"><svg t="1721785803513" class="icon" viewBox="0 0 1024 1024" version="1.1" xmlns="http://www.w3.org/2000/svg" p-id="13171" xmlns:xlink="http://www.w3.org/1999/xlink" width="200" height="200"><path d="M736 512H704l-32-256c38.4 0 64-25.6 64-64V128c0-38.4-25.6-64-64-64h-384c-38.4 0-64 25.6-64 64v64c0 38.4 25.6 64 64 64L256 512h-32c-38.4 0-64 25.6-64 64v128H448v256h64v-256h288V576c0-38.4-25.6-64-64-64z m0 128h-512V576h89.6l51.2-384H288V128h384v64H601.6l51.2 384h89.6v64z" fill="currentColor" p-id="13172"></path></svg>