<svg width="1024" height="1024" xmlns="http://www.w3.org/2000/svg" t="1711938764418" class="icon" version="1.1" p-id="39937">
 <g id="Layer_1">
  <title>Layer 1</title>
  <g>
   <path p-id="22998" fill="currentColor" d="m418.74969,339.09838c-21.43253,0 -38.85429,17.42176 -38.85429,38.85429l0,40.73435c0,21.43253 17.42176,38.85429 38.85429,38.85429s38.85429,-17.42176 38.85429,-38.85429l0,-40.73435c0,-21.43253 -17.42176,-38.85429 -38.85429,-38.85429zm187.37798,118.44294c21.43253,0 38.85429,-17.42176 38.85429,-38.85429l0,-40.73435c0,-21.43253 -17.42176,-38.85429 -38.85429,-38.85429s-38.85429,17.42176 -38.85429,38.85429l0,40.73435c0,21.43253 17.42176,38.85429 38.85429,38.85429z"/>
   <path p-id="22999" fill="currentColor" d="m799.77247,849.09236c-0.12534,-1.12803 -0.25068,-2.25606 -0.50134,-3.25874c-6.76817,-37.09959 -25.31796,-72.19379 -52.2653,-98.63978c-10.27758,-10.15225 -21.43253,-18.67513 -33.46482,-25.56864c18.29911,-12.53365 35.47021,-26.82199 51.51327,-42.73972c67.55635,-67.55634 104.78127,-157.42257 104.78127,-253.05428s-37.22492,-185.49793 -104.78127,-253.05427s-157.42257,-104.78126 -253.05427,-104.78126c-95.6317,0 -185.49793,37.22492 -253.05427,104.78126c-67.55634,67.55634 -104.78126,157.42257 -104.78127,253.05427s37.22492,185.49793 104.78127,253.05428c15.91773,15.91773 33.21416,30.20608 51.51327,42.73972c-11.65629,6.89351 -22.68589,15.41639 -32.58747,25.4433c-26.06998,26.44599 -44.11843,62.54288 -50.76126,101.52252c-0.12534,0.62668 -0.25067,1.37869 -0.25067,2.00538l-7.14418,61.9162c-2.50672,21.3072 12.78431,40.60901 34.09152,43.11574c1.50403,0.12534 3.00807,0.25068 4.51211,0.25068c19.42714,0 36.22223,-14.53904 38.60362,-34.34219l7.01885,-60.91351c9.90157,-56.27606 49.50789,-81.8447 82.2207,-81.84469l2.00539,0l47.25184,-2.50673c0.75202,0 1.37869,-0.12534 2.00538,-0.12534c24.18993,5.1388 49.13189,7.77086 74.44984,7.77086c25.4433,0 50.38525,-2.63206 74.70052,-7.77086c0.75202,0.12534 1.50403,0.12534 2.38139,0.25068l46.75049,2.50672l2.00538,0c43.24107,0 76.7059,40.233 84.6021,79.71398l5.89082,62.16688c1.88004,20.05383 18.80046,35.21953 38.60362,35.21953c1.25337,0 2.50673,0 3.7601,-0.12533c21.30719,-2.00539 37.09958,-20.93119 34.96887,-42.36372l-5.76548,-64.42293zm-351.94472,-148.02234c-3.00808,-1.25337 -6.26682,-2.00538 -9.65091,-2.38138c-47.12651,-12.65899 -90.36758,-37.60094 -125.83779,-73.07115c-53.39332,-53.39332 -82.84739,-124.33375 -82.84739,-199.91161s29.45407,-146.51831 82.84739,-199.91163s124.33375,-82.84739 199.91163,-82.84739s146.5183,29.45407 199.91161,82.84739c53.39332,53.39332 82.84739,124.33375 82.84739,199.91163s-29.57939,146.5183 -82.97272,199.78628c-35.59555,35.59555 -78.96196,60.5375 -126.33913,73.19649c-2.63206,0.37601 -5.26412,1.00269 -7.77086,2.00538c-21.30719,5.01346 -43.36641,7.64552 -65.80163,7.64552c-21.93388,0 -43.49175,-2.50672 -64.29759,-7.26951z"/>
  </g>
 </g>

</svg>