<svg width="162" height="162" viewBox="-19 -19 200 200" xmlns="http://www.w3.org/2000/svg">
    <path
        d="M113.316 162H18.6844C8.38299 162 0 153.617 0 143.316V48.6844C0 38.383 8.38299 30 18.6844 30H113.316C123.617 30 132 38.383 132 48.6844V143.316C132 153.617 123.617 162 113.316 162ZM18.6844 42.4561C15.2527 42.4561 12.4561 45.2527 12.4561 48.6844V143.316C12.4561 146.754 15.2527 149.544 18.6844 149.544H113.316C116.754 149.544 119.544 146.754 119.544 143.316V48.6844C119.544 45.2527 116.754 42.4561 113.316 42.4561H18.6844Z"
        fill="currentColor" />
    <path
        d="M142 132H143.316C153.617 132 162 123.617 162 113.316V18.6844C162 8.38299 153.617 0 143.316 0H48.6844C38.383 0 30 8.38299 30 18.6844V20H42.4561V18.6844C42.4561 15.2527 45.2527 12.4561 48.6844 12.4561H143.316C146.754 12.4561 149.544 15.2527 149.544 18.6844V113.316C149.544 116.754 146.754 119.544 143.316 119.544H142V132Z"
        fill="currentColor" />
</svg>
